<svg width="49" height="49" viewBox="0 0 49 49" fill="none" xmlns="http://www.w3.org/2000/svg">
<circle cx="24.5" cy="24.5" r="24.5" fill="#264DE4"/>
<path d="M36.8487 41.1507L40.0647 11.3751H24.3031H8.64706L11.6157 41.1507L24.3031 46.0088L36.8487 41.1507Z" fill="white"/>
<path d="M19.2748 5.16338C19.2748 4.73032 19.4237 4.39469 19.7214 4.1565C20.0246 3.9129 20.4793 3.7911 21.0856 3.7911C21.4862 3.7911 21.8272 3.829 22.1087 3.90478V5.02534C21.8056 4.93332 21.5051 4.8873 21.2074 4.8873C20.9151 4.8873 20.7256 4.92249 20.639 4.99286C20.5524 5.05782 20.5091 5.15526 20.5091 5.28518V8.0135C20.5091 8.27334 20.7121 8.40326 21.1181 8.40326C21.5295 8.40326 21.8678 8.36266 22.1331 8.28146V9.37766C21.8408 9.45886 21.4862 9.49946 21.0694 9.49946C20.4631 9.49946 20.0111 9.38037 19.7133 9.14218C19.421 8.904 19.2748 8.56837 19.2748 8.1353V5.16338ZM22.4994 5.14714C22.4994 4.71408 22.6455 4.38116 22.9379 4.14838C23.2302 3.9102 23.6497 3.7911 24.1965 3.7911C24.7486 3.7911 25.16 3.84794 25.4307 3.96162V5.1309C25.1005 4.99016 24.7243 4.91978 24.302 4.91978C24.0855 4.91978 23.9393 4.95497 23.8635 5.02534C23.7877 5.0903 23.7499 5.18504 23.7499 5.30954V5.43134C23.7499 5.58292 23.7742 5.6966 23.8229 5.77238C23.8771 5.84276 23.9907 5.92396 24.164 6.01598L25.0897 6.53566C25.5335 6.77926 25.7555 7.14466 25.7555 7.63186V8.1353C25.7555 8.57378 25.5931 8.91212 25.2683 9.1503C24.9435 9.38308 24.4861 9.49946 23.896 9.49946C23.3114 9.49946 22.8702 9.43721 22.5725 9.3127V8.1353C22.9406 8.29229 23.3574 8.37078 23.8229 8.37078C24.2885 8.37078 24.5213 8.23816 24.5213 7.9729V7.8511C24.5213 7.7266 24.4942 7.63457 24.4401 7.57502C24.3913 7.51006 24.2966 7.43969 24.1559 7.3639L23.287 6.89294C22.7619 6.60062 22.4994 6.18921 22.4994 5.6587V5.14714ZM26.0677 5.14714C26.0677 4.71408 26.2139 4.38116 26.5062 4.14838C26.7985 3.9102 27.2181 3.7911 27.7648 3.7911C28.317 3.7911 28.7284 3.84794 28.9991 3.96162V5.1309C28.6688 4.99016 28.2926 4.91978 27.8704 4.91978C27.6538 4.91978 27.5077 4.95497 27.4319 5.02534C27.3561 5.0903 27.3182 5.18504 27.3182 5.30954V5.43134C27.3182 5.58292 27.3426 5.6966 27.3913 5.77238C27.4454 5.84276 27.5591 5.92396 27.7323 6.01598L28.658 6.53566C29.1019 6.77926 29.3239 7.14466 29.3239 7.63186V8.1353C29.3239 8.57378 29.1615 8.91212 28.8367 9.1503C28.5119 9.38308 28.0544 9.49946 27.4644 9.49946C26.8797 9.49946 26.4385 9.43721 26.1408 9.3127V8.1353C26.5089 8.29229 26.9257 8.37078 27.3913 8.37078C27.8568 8.37078 28.0896 8.23816 28.0896 7.9729V7.8511C28.0896 7.7266 28.0625 7.63457 28.0084 7.57502C27.9597 7.51006 27.865 7.43969 27.7242 7.3639L26.8554 6.89294C26.3303 6.60062 26.0677 6.18921 26.0677 5.6587V5.14714Z" fill="white"/>
<path d="M11.863 13.7263H37.3435L35.0271 39.2068L24.0768 42.3655L14.39 39.2068V31.8364H18.1805L19.2334 35.4163L24.0768 36.8904L30.3943 35.4163V29.52H14.39H12.9159V24.0448H30.3943V19.2015H12.9159L11.863 13.7263Z" fill="#264DE4"/>
</svg>
