<svg width="34" height="34" viewBox="0 0 43 43" fill="none" xmlns="http://www.w3.org/2000/svg">
<g filter="url(#filter0_f_13_40)">
<path fill-rule="evenodd" clip-rule="evenodd" d="M21.6786 5.60388C12.6298 5.60388 5.61688 12.1639 5.61688 21.0237C5.61688 25.6582 7.53653 29.6627 10.6617 32.4293C10.9234 32.6628 11.0817 32.9859 11.0947 33.3345L11.182 36.1619C11.211 37.0639 12.1514 37.6492 12.9853 37.2877L16.1717 35.8964C16.4432 35.7782 16.7437 35.7557 17.0281 35.8325C18.492 36.2322 20.053 36.4434 21.6786 36.4434C30.7274 36.4434 37.7403 29.8833 37.7403 21.0237C37.7403 12.1639 30.7274 5.60388 21.6786 5.60388ZM12.0351 25.5335L16.7534 18.1258C17.5031 16.9489 19.1126 16.6546 20.2372 17.4894L23.9892 20.2752C24.335 20.5311 24.8069 20.5279 25.1494 20.2721L30.2168 16.4658C30.8922 15.9574 31.7778 16.7601 31.322 17.4702L26.6069 24.8746C25.8572 26.0516 24.2478 26.3459 23.1232 25.5111L19.3712 22.7252C19.0253 22.4693 18.5535 22.4725 18.211 22.7285L13.1404 26.5378C12.465 27.0463 11.5794 26.2435 12.0351 25.5335Z" fill="#006EAE" fill-opacity="0.5"/>
</g>
<path d="M18.5295 17.9915L18.5296 17.9915C19.3577 16.6915 21.1328 16.3679 22.3732 17.2886L22.3732 17.2886L26.125 20.0742C26.125 20.0743 26.1251 20.0744 26.1252 20.0744C26.3816 20.2641 26.732 20.262 26.9866 20.0719C26.9867 20.0719 26.9868 20.0718 26.9868 20.0718L32.0534 16.2661C32.0535 16.2661 32.0535 16.266 32.0536 16.266C32.5009 15.9294 33.0243 16.0316 33.3486 16.326C33.6735 16.6208 33.823 17.1317 33.5197 17.6047C33.5196 17.6049 33.5195 17.6051 33.5194 17.6052L28.8048 25.0089L28.8048 25.0089C27.9766 26.3091 26.2016 26.6325 24.9612 25.7118L24.9612 25.7118L21.2095 22.9262C20.9529 22.7364 20.6026 22.7384 20.3479 22.9285C20.3478 22.9286 20.3477 22.9287 20.3476 22.9287L15.2778 26.7375L18.5295 17.9915ZM18.5295 17.9915L13.8118 25.3984M18.5295 17.9915L13.8118 25.3984M13.8118 25.3984C13.8116 25.3986 13.8115 25.3988 13.8114 25.399M13.8118 25.3984L13.8114 25.399M13.8114 25.399C13.5082 25.872 13.6577 26.3828 13.9826 26.6777C14.3068 26.9721 14.8303 27.0743 15.2776 26.7377L13.8114 25.399ZM12.8151 32.2428L12.8144 32.2421C9.74248 29.5226 7.8539 25.5861 7.8539 21.0237C7.8539 12.3133 14.7433 5.85388 23.6656 5.85388C32.5879 5.85388 39.4773 12.3133 39.4773 21.0237C39.4773 29.7339 32.5879 36.1934 23.6656 36.1934C22.0617 36.1934 20.5229 35.985 19.081 35.5913L19.0802 35.5911C18.7408 35.4995 18.3821 35.5264 18.0589 35.6673L18.0587 35.6673L14.8729 37.0584C14.8728 37.0584 14.8726 37.0585 14.8725 37.0585C14.1968 37.3511 13.4422 36.8752 13.4189 36.1539C13.4189 36.1539 13.4189 36.1539 13.4189 36.1538L13.3316 33.3267L13.3315 33.3252C13.3159 32.9054 13.1251 32.5193 12.8151 32.2428ZM18.1587 35.8964C18.4302 35.7782 18.7307 35.7557 19.0151 35.8325L18.1587 35.8964Z" fill="white" fill-opacity="0.9" stroke="url(#paint0_linear_13_40)" stroke-width="0.5"/>
<defs>
<filter id="filter0_f_13_40" x="0.616882" y="0.603882" width="42.1234" height="41.7922" filterUnits="userSpaceOnUse" color-interpolation-filters="sRGB">
<feFlood flood-opacity="0" result="BackgroundImageFix"/>
<feBlend mode="normal" in="SourceGraphic" in2="BackgroundImageFix" result="shape"/>
<feGaussianBlur stdDeviation="2.5" result="effect1_foregroundBlur_13_40"/>
</filter>
<linearGradient id="paint0_linear_13_40" x1="23.6656" y1="5.60388" x2="23.6656" y2="37.3961" gradientUnits="userSpaceOnUse">
<stop stop-color="white"/>
<stop offset="1" stop-color="white" stop-opacity="0"/>
</linearGradient>
</defs>
</svg>
