<svg width="47" height="47" viewBox="0 0 47 47" fill="none" xmlns="http://www.w3.org/2000/svg">
<rect width="47" height="47" rx="23.5" fill="#E44D26"/>
<rect width="47" height="47" rx="23.5" fill="#E44D26"/>
<path fill-rule="evenodd" clip-rule="evenodd" d="M37.06 12.17L34.2852 37.8603L23.4609 42.0518L12.5142 37.8603L9.95294 12.17H23.4609H37.06ZM17.4247 19.5367H30.8808V16.0124H15.5024V26.2647H26.5556V31.0705L22.0702 31.8714L18.2256 31.0705V28.6676H15.5024V33.6335L23.0314 35.716L30.0798 33.6335V23.2211H17.4247V19.5367Z" fill="white"/>
<path d="M16.1134 6.81949H17.3428V8.32877H18.4844V6.81949H19.7137V10.6997H18.4844V9.11908H17.3428V10.6997H16.1134V6.81949ZM21.0885 10.6997V7.71408H20.2104V6.81949H23.2153V7.71408H22.3179V10.6997H21.0885ZM23.7119 6.81949H24.8535L25.8194 8.32877L26.7854 6.81949H27.9544V10.6997H26.6976V8.59221L25.792 10.1262H25.5258L24.5901 8.59221V10.6997H23.7119V6.81949ZM28.8929 6.81949H30.1223V9.90939H31.4394V10.6997H28.8929V6.81949Z" fill="white"/>
</svg>
