<svg width="49" height="49" viewBox="0 0 49 49" fill="none" xmlns="http://www.w3.org/2000/svg">
<rect width="49" height="49" rx="24.5" fill="#F7D600"/>
<path d="M38.6547 18.9053L36.6101 22.0209C33.884 19.713 25.7055 17.8685 28.4316 23.4055C38.6547 26.8673 36.6101 25.8287 38.6547 27.9058C40.0178 29.2905 39.9141 32.7522 38.6547 34.483C34.0203 40.8526 26.0463 37.137 22.6385 34.483L25.7055 31.0213C31.8393 37.5986 41.7217 31.0213 27.0686 27.9058C25.2511 27.098 22.2978 24.1671 25.0239 18.9053C27.7501 13.6435 35.247 16.7129 38.6547 18.9053Z" fill="black"/>
<path d="M20.6385 17H16.0885V32.6076C14.7885 36.8347 9.58855 32.6076 9.58855 32.6076L7.63855 34.5586C11.7985 41.0618 20.6385 37.1599 20.6385 32.6076V17Z" fill="black" stroke="black" stroke-width="1.44944"/>
</svg>
