<svg width="45" height="45" viewBox="0 0 45 45" fill="none" xmlns="http://www.w3.org/2000/svg">
<path d="M45 0H0V45H45V0Z" fill="#F7DF1E"/>
<path d="M30.2286 35.1565C31.135 36.6365 32.3143 37.7243 34.4 37.7243C36.1521 37.7243 37.2714 36.8486 37.2714 35.6386C37.2714 34.1886 36.1214 33.6751 34.1929 32.8315L33.1357 32.3779C30.0843 31.0779 28.0571 29.4493 28.0571 26.0065C28.0571 22.8351 30.4736 20.4208 34.25 20.4208C36.9386 20.4208 38.8714 21.3565 40.2643 23.8065L36.9714 25.9208C36.2464 24.6208 35.4643 24.1086 34.25 24.1086C33.0114 24.1086 32.2264 24.8943 32.2264 25.9208C32.2264 27.1893 33.0121 27.7029 34.8264 28.4886L35.8836 28.9415C39.4764 30.4822 41.505 32.0529 41.505 35.5843C41.505 39.3915 38.5143 41.4772 34.4979 41.4772C30.5707 41.4772 28.0336 39.6058 26.7921 37.1529L30.2286 35.1565ZM15.2907 35.5229C15.955 36.7015 16.5593 37.6979 18.0121 37.6979C19.4014 37.6979 20.2779 37.1543 20.2779 35.0408V20.6622H24.5064V35.0979C24.5064 39.4765 21.9393 41.4693 18.1921 41.4693C14.8064 41.4693 12.8457 39.7172 11.8486 37.6068L15.2907 35.5229Z" fill="black"/>
</svg>
