<svg width="49" height="49" viewBox="0 0 49 49" fill="none" xmlns="http://www.w3.org/2000/svg">
<path d="M24.4584 36.4742C35.2991 51.2523 45.9082 32.3494 45.8925 20.9818C45.8743 7.54205 32.2519 0.0305176 24.4496 0.0305176C11.9263 0.0303262 0 10.3802 0 24.5412C0 40.2813 13.6712 48.9998 24.4496 48.9998C22.0105 48.6486 13.8821 46.907 13.773 28.185C13.6993 15.5227 17.9035 10.4637 24.432 12.6892C24.5783 12.7433 31.6331 15.5264 31.6331 24.6176C31.6331 33.6703 24.4584 36.474 24.4584 36.474V36.4742Z" fill="url(#paint0_linear_102_92)"/>
<path d="M24.4458 12.6788C17.2826 10.2099 8.50763 16.1138 8.50763 27.9389C8.50763 47.2473 22.8158 48.9998 24.5503 48.9998C37.0736 48.9998 49 38.6497 49 24.489C49 8.7489 35.3288 0.0303583 24.5503 0.0303583C27.5357 -0.383078 40.6409 3.26129 40.6409 21.1727C40.6409 32.8534 30.8554 39.2123 24.4908 36.4955C24.3446 36.4413 17.2895 33.6583 17.2895 24.5671C17.2895 15.5141 24.4458 12.6788 24.4458 12.6788V12.6788Z" fill="url(#paint1_linear_102_92)"/>
<defs>
<linearGradient id="paint0_linear_102_92" x1="7.24688" y1="7.24712" x2="43.8495" y2="39.3942" gradientUnits="userSpaceOnUse">
<stop/>
<stop offset="1" stop-color="white"/>
</linearGradient>
<linearGradient id="paint1_linear_102_92" x1="41.7664" y1="41.766" x2="2.14944" y2="14.7119" gradientUnits="userSpaceOnUse">
<stop/>
<stop offset="1" stop-color="white"/>
</linearGradient>
</defs>
</svg>
