<svg width="60" height="45" viewBox="0 0 60 45" fill="none" xmlns="http://www.w3.org/2000/svg">
<path d="M51.6647 25.8687C49.5715 25.8797 47.7522 26.3839 46.2289 27.1292C45.67 26.0222 45.1111 25.0358 45.0124 24.3124C44.9029 23.4685 44.7713 22.9534 44.9029 21.945C45.0344 20.9367 45.6262 19.5009 45.6152 19.3913C45.6042 19.2817 45.4837 18.7666 44.2782 18.7556C43.0727 18.7447 42.0315 18.9858 41.911 19.3036C41.7904 19.6215 41.5603 20.3448 41.4069 21.0901C41.1986 22.1861 38.9958 26.0989 37.7355 28.1484C37.33 27.3484 36.9793 26.6469 36.9026 26.0879C36.793 25.244 36.6615 24.7289 36.793 23.7206C36.9245 22.7122 37.5163 21.2765 37.5054 21.1669C37.4944 21.0573 37.3739 20.5421 36.1683 20.5312C34.9628 20.5202 33.9217 20.7613 33.8011 21.0792C33.6806 21.397 33.5491 22.1423 33.297 22.8657C33.045 23.589 30.1188 30.1213 29.3517 31.8091C28.9572 32.675 28.6174 33.3655 28.3763 33.8367C28.3763 33.8367 28.3654 33.8696 28.3325 33.9244C28.1243 34.3299 28.0037 34.5491 28.0037 34.5491C28.0037 34.5491 28.0037 34.5491 28.0037 34.5601C27.8393 34.856 27.664 35.13 27.5763 35.13C27.5105 35.13 27.39 34.3409 27.5982 33.2668C28.0366 30.9981 29.0777 27.4689 29.0668 27.3484C29.0668 27.2826 29.264 26.6688 28.3873 26.351C27.5325 26.0331 27.2256 26.5592 27.1489 26.5592C27.0722 26.5592 27.0174 26.7456 27.0174 26.7456C27.0174 26.7456 27.9708 22.778 25.1981 22.778C23.4666 22.778 21.0775 24.6741 19.8939 26.3839C19.1487 26.7894 17.5596 27.6552 15.8609 28.5868C15.2143 28.9485 14.5458 29.3102 13.9211 29.65C13.8773 29.6061 13.8334 29.5513 13.7896 29.5075C10.4361 25.9235 4.23314 23.3918 4.49616 18.5803C4.59479 16.8267 5.19755 12.2234 16.4088 6.63375C25.6365 2.08531 32.9792 3.34572 34.2505 6.14055C36.0697 10.13 30.3161 17.5391 20.7816 18.6132C17.1431 19.0187 15.2362 17.6158 14.754 17.0897C14.2499 16.5417 14.1732 16.5088 13.9869 16.6184C13.68 16.7828 13.8773 17.276 13.9869 17.561C14.2718 18.3063 15.4444 19.6215 17.4281 20.2681C19.1815 20.8381 23.4447 21.1559 28.6065 19.1612C34.382 16.9253 38.8972 10.7109 37.5711 5.50486C36.2451 0.222093 27.4777 -1.52056 19.1815 1.4277C14.2499 3.18132 8.90177 5.94327 5.05508 9.53818C0.485079 13.8126 -0.23823 17.5281 0.0576696 19.0844C1.12072 24.6083 8.73738 28.2032 11.784 30.8665C11.6306 30.9542 11.4881 31.031 11.3676 31.0967C9.84426 31.853 4.03587 34.8889 2.58925 38.1002C0.945368 41.739 2.85227 44.3475 4.11259 44.6982C8.02503 45.7833 12.0471 43.8324 14.206 40.6101C16.365 37.3878 16.102 33.2011 15.1047 31.283C15.0937 31.2611 15.0828 31.2392 15.0609 31.2173C15.4554 30.9871 15.8609 30.746 16.2554 30.5158C17.0335 30.0555 17.8007 29.6281 18.4582 29.2773C18.0856 30.2966 17.8116 31.5132 17.6801 33.2668C17.5157 35.3273 18.3596 38.0016 19.4665 39.0537C19.9596 39.5141 20.5405 39.525 20.9131 39.525C22.2063 39.525 22.7871 38.4509 23.4337 37.1796C24.2228 35.6232 24.9351 33.8148 24.9351 33.8148C24.9351 33.8148 24.0474 38.703 26.4585 38.703C27.3352 38.703 28.2229 37.5632 28.6174 36.9823C28.6174 36.9932 28.6174 36.9932 28.6174 36.9932C28.6174 36.9932 28.6393 36.9604 28.6832 36.8836C28.7709 36.7412 28.8257 36.6535 28.8257 36.6535C28.8257 36.6535 28.8257 36.6425 28.8257 36.6316C29.1764 36.0178 29.9654 34.6259 31.1381 32.3133C32.6504 29.3321 34.108 25.6057 34.108 25.6057C34.108 25.6057 34.2395 26.5154 34.6888 28.0279C34.9519 28.9157 35.4998 29.8911 35.9382 30.8337C35.5875 31.3269 35.3683 31.6009 35.3683 31.6009C35.3683 31.6009 35.3683 31.6009 35.3793 31.6118C35.0943 31.9845 34.7875 32.39 34.4477 32.7846C33.2532 34.2094 31.8285 35.8424 31.6312 36.3137C31.4011 36.8727 31.4559 37.2782 31.8942 37.607C32.2121 37.8481 32.7819 37.881 33.3628 37.8481C34.4368 37.7714 35.193 37.5084 35.5656 37.344C36.1464 37.1357 36.8259 36.8179 37.4615 36.3466C38.6342 35.4808 39.3465 34.2423 39.2808 32.6092C39.2479 31.7105 38.952 30.8117 38.5903 29.9678C38.6999 29.8144 38.7986 29.6609 38.9082 29.5075C40.7603 26.8003 42.1959 23.8302 42.1959 23.8302C42.1959 23.8302 42.3274 24.7399 42.7768 26.2523C42.9959 27.0196 43.4453 27.8525 43.8398 28.6636C42.0973 30.0774 41.0233 31.7214 40.6397 32.7955C39.9493 34.7903 40.4863 35.689 41.5055 35.8972C41.9658 35.9959 42.6233 35.7767 43.1055 35.5684C43.7193 35.3712 44.4426 35.0314 45.133 34.5272C46.3056 33.6614 47.4344 32.4558 47.3687 30.8227C47.3358 30.0774 47.1385 29.3431 46.8646 28.6307C48.3441 28.0169 50.251 27.6772 52.6839 27.9621C57.9005 28.5759 58.9307 31.831 58.7334 33.2011C58.5361 34.5711 57.4402 35.3163 57.0786 35.5465C56.7169 35.7767 56.5964 35.8534 56.6292 36.0178C56.6731 36.2589 56.8484 36.248 57.1553 36.2041C57.5827 36.1274 59.8951 35.0972 59.9937 32.5763C60.1581 29.3541 57.0895 25.8359 51.6647 25.8687ZM11.4224 39.4374C9.69084 41.3225 7.2798 42.0349 6.23868 41.4321C5.12084 40.7854 5.5592 38.0016 7.6853 36.0068C8.97849 34.7903 10.6443 33.6614 11.7512 32.9709C12.0032 32.8174 12.3758 32.5982 12.8252 32.3242C12.9019 32.2804 12.9457 32.2585 12.9457 32.2585C13.0334 32.2037 13.1211 32.1489 13.2087 32.0941C13.9869 34.9437 13.2416 37.4536 11.4224 39.4374ZM24.0255 30.8665C23.4228 32.3352 22.1624 36.0945 21.3953 35.8863C20.7377 35.7109 20.3323 32.8613 21.2638 30.0445C21.735 28.6307 22.7323 26.9428 23.3132 26.2852C24.2557 25.2331 25.2968 24.8823 25.5488 25.3098C25.8667 25.8687 24.3981 29.9459 24.0255 30.8665ZM34.4258 35.8424C34.1738 35.974 33.9327 36.0616 33.8231 35.9959C33.7464 35.952 33.9327 35.7767 33.9327 35.7767C33.9327 35.7767 35.2368 34.3738 35.7519 33.7381C36.0478 33.3655 36.3985 32.927 36.7711 32.4338C36.7711 32.4777 36.7711 32.5325 36.7711 32.5763C36.7711 34.2532 35.1491 35.3821 34.4258 35.8424ZM42.448 34.0121C42.2617 33.8806 42.2946 33.4422 42.9192 32.0722C43.1603 31.5351 43.7302 30.6364 44.7056 29.7705C44.8152 30.1213 44.8919 30.461 44.8809 30.7789C44.87 32.8942 43.3576 33.6833 42.448 34.0121Z" fill="#CD6799"/>
</svg>
