<svg width="48" height="54" viewBox="0 0 48 54" fill="none" xmlns="http://www.w3.org/2000/svg">
<path d="M23.8636 0L4.44902e-05 13.5V40.5L23.8636 54L47.7271 40.5V13.5L23.8636 0Z" fill="white"/>
<path d="M4.26154 39.5684L23.076 50.211V41.9219L11.3535 35.4734L4.26154 39.5684ZM2.97454 38.4029V16.1459L9.85954 20.1194V34.4249L2.97454 38.4029ZM43.542 39.5684L24.7275 50.211V41.9219L36.45 35.4734L43.542 39.5684V39.5684ZM44.829 38.4029V16.1459L37.944 20.1194V34.4249L44.829 38.4029V38.4029ZM44.0235 14.7059L24.7275 3.78894V11.8034L37.089 18.6029L37.1835 18.6569L44.0235 14.7059V14.7059ZM3.78004 14.7059L23.076 3.78894V11.8034L10.7145 18.6029L10.62 18.6569L3.78004 14.7059V14.7059Z" fill="#8ED6FB"/>
<path d="M24.7275 40.0365L36.2925 33.678V21.078L24.7275 27.756V40.0365ZM23.076 40.0365L11.511 33.678V21.078L23.076 27.756V40.0365ZM35.5095 19.62L23.8995 13.2345L12.2895 19.62L23.8995 26.325L35.5095 19.62" fill="#1C78C0"/>
</svg>
